<svg xmlns="http://www.w3.org/2000/svg" viewBox="0 0 64 64" fill="none">
  <polygon points="32,4 56,16 56,36 32,60 8,36 8,16" fill="#0a0a0a" stroke="#38bdf8" stroke-width="1.5"/>
  <circle cx="32" cy="32" r="7" fill="none" stroke="#38bdf8" stroke-width="1.5"/>
  <circle cx="32" cy="32" r="2.5" fill="#38bdf8"/>
  <line x1="32" y1="18" x2="32" y2="23" stroke="#38bdf8" stroke-width="1.2" stroke-linecap="round"/>
  <line x1="32" y1="41" x2="32" y2="46" stroke="#38bdf8" stroke-width="1.2" stroke-linecap="round"/>
  <line x1="18" y1="32" x2="23" y2="32" stroke="#38bdf8" stroke-width="1.2" stroke-linecap="round"/>
  <line x1="41" y1="32" x2="46" y2="32" stroke="#38bdf8" stroke-width="1.2" stroke-linecap="round"/>
  <circle cx="32" cy="18" r="2" fill="#38bdf8" opacity="0.7"/>
  <circle cx="32" cy="46" r="2" fill="#38bdf8" opacity="0.7"/>
  <circle cx="18" cy="32" r="2" fill="#38bdf8" opacity="0.7"/>
  <circle cx="46" cy="32" r="2" fill="#38bdf8" opacity="0.7"/>
  <line x1="32" y1="16" x2="8" y2="16" stroke="#38bdf8" stroke-width="0.6" opacity="0.3"/>
  <line x1="32" y1="16" x2="56" y2="16" stroke="#38bdf8" stroke-width="0.6" opacity="0.3"/>
  <line x1="18" y1="32" x2="8" y2="36" stroke="#38bdf8" stroke-width="0.6" opacity="0.3"/>
  <line x1="46" y1="32" x2="56" y2="36" stroke="#38bdf8" stroke-width="0.6" opacity="0.3"/>
  <line x1="32" y1="46" x2="32" y2="60" stroke="#38bdf8" stroke-width="0.6" opacity="0.3"/>
</svg>
